# xmcd CD database file
#
# Track frame offsets:
#	150
#	17342
#	30789
#
# Disc length: 620 seconds
#
# Revision: 0
# Processed by: cddbd v1.5.1PL0 Copyright (c) Steve Scherf et al.
# Submitted via: CDex 1.51
#
DISCID=0d026a03
DTITLE=Adam Harvey - That's What You Call A Friend (single)
DYEAR=2004
DGENRE=Country
TTITLE0=That's What You Call A Friend
TTITLE1=Life Don't Have To Mean Nothin' At All
TTITLE2=Would You Lay With Me
EXTD=YEAR: 2004
EXTT0=
EXTT1=
EXTT2=
PLAYORDER=
